<svg width="24px" height="24px" viewBox="0 0 24 24" fill="none" xmlns="http://www.w3.org/2000/svg">
<path fill-rule="evenodd" clip-rule="evenodd" d="M15.0549 3.25H8.94513C7.57754 3.24998 6.47521 3.24996 5.60825 3.36652C4.70814 3.48754 3.95027 3.74643 3.34835 4.34835C2.74643 4.95027 2.48754 5.70814 2.36652 6.60825C2.24996 7.47521 2.24998 8.57753 2.25 9.94511V12.0549C2.24998 13.4225 2.24996 14.5248 2.36652 15.3918C2.48754 16.2919 2.74643 17.0497 3.34835 17.6517C3.95027 18.2536 4.70814 18.5125 5.60825 18.6335C6.47521 18.75 7.57753 18.75 8.94511 18.75H15.0549C16.4225 18.75 17.5248 18.75 18.3918 18.6335C19.2919 18.5125 20.0497 18.2536 20.6517 17.6517C21.2536 17.0497 21.5125 16.2919 21.6335 15.3918C21.75 14.5248 21.75 13.4225 21.75 12.0549V9.94513C21.75 8.57754 21.75 7.47522 21.6335 6.60825C21.5125 5.70814 21.2536 4.95027 20.6517 4.34835C20.0497 3.74643 19.2919 3.48754 18.3918 3.36652C17.5248 3.24996 16.4225 3.24998 15.0549 3.25ZM6.33541 7.32918C5.96493 7.14394 5.51442 7.29411 5.32918 7.66459C5.14394 8.03507 5.29411 8.48558 5.66459 8.67082L10.7702 11.2236C11.5444 11.6107 12.4556 11.6107 13.2298 11.2236L18.3354 8.67082C18.7059 8.48558 18.8561 8.03507 18.6708 7.66459C18.4856 7.29411 18.0351 7.14394 17.6646 7.32918L12.559 9.88197C12.2071 10.0579 11.7929 10.0579 11.441 9.88197L6.33541 7.32918Z" fill="black"/>
</svg>
